<?xml version="1.0" standalone="no"?>
<!DOCTYPE svg PUBLIC "-//W3C//DTD SVG 20010904//EN"
 "http://www.w3.org/TR/2001/REC-SVG-20010904/DTD/svg10.dtd">
<svg version="1.0" xmlns="http://www.w3.org/2000/svg"
 width="3600.000000pt" height="1049.000000pt" viewBox="0 0 3600.000000 1049.000000"
 preserveAspectRatio="xMidYMid meet">

<g transform="translate(0.000000,1049.000000) scale(0.100000,-0.100000)"
fill="#000000" stroke="none">
<path d="M3610 9829 c-1281 -66 -2208 -457 -2786 -1174 -118 -147 -219 -308
-317 -505 -197 -395 -304 -787 -364 -1330 -26 -235 -26 -984 0 -1240 62 -603
177 -1067 356 -1435 107 -218 237 -379 401 -494 298 -210 665 -276 1130 -205
348 52 606 165 797 348 43 40 96 99 118 129 l40 55 89 -45 c115 -58 295 -117
421 -138 120 -21 364 -23 480 -5 170 26 353 104 473 200 l61 49 32 -59 c44
-83 119 -156 198 -194 65 -31 67 -31 226 -31 148 1 166 3 239 28 238 83 378
231 560 595 69 137 87 181 141 342 l42 124 7 -89 c17 -217 82 -448 187 -664
53 -108 70 -134 138 -201 163 -163 391 -228 579 -164 210 70 341 211 492 527
80 168 141 322 170 432 12 44 39 139 61 210 31 106 82 306 104 410 4 19 12 20
125 20 66 0 120 -2 120 -5 0 -3 -7 -59 -15 -125 -21 -179 -30 -568 -16 -695
42 -366 184 -632 391 -733 325 -160 641 -28 847 353 98 180 197 423 247 605
75 270 129 415 155 415 23 0 51 -58 70 -143 46 -204 128 -718 181 -1137 25
-195 29 -200 121 -200 85 0 204 41 294 101 112 75 126 102 142 262 28 291 105
647 198 917 65 188 102 234 169 206 69 -29 124 -143 160 -334 40 -212 76 -661
76 -954 0 -158 0 -159 26 -185 24 -24 30 -25 94 -20 79 7 178 43 267 99 107
67 153 136 153 226 0 187 166 776 295 1049 94 198 151 265 209 243 59 -22 66
-67 76 -470 15 -569 46 -775 155 -1004 47 -99 101 -158 183 -198 64 -32 71
-33 187 -33 98 1 131 5 179 23 92 34 164 81 241 157 92 91 163 200 268 410
114 229 185 411 252 645 30 107 74 250 96 317 61 185 73 180 82 -35 10 -226
56 -510 127 -779 72 -278 187 -441 375 -534 185 -90 318 -91 489 -1 84 44 202
156 265 252 53 83 167 314 221 450 23 58 66 190 96 294 30 103 68 223 84 265
87 224 265 428 460 526 75 38 188 80 195 73 3 -2 -27 -26 -65 -52 -38 -27
-104 -84 -145 -128 -88 -94 -156 -221 -180 -336 -19 -92 -19 -246 0 -335 17
-83 83 -211 171 -332 219 -301 262 -404 251 -605 -10 -189 -84 -302 -226 -344
-87 -25 -277 -21 -368 8 -19 6 -23 4 -23 -12 0 -29 59 -76 127 -103 81 -32
221 -30 405 5 491 93 862 328 1113 706 128 192 219 409 316 755 23 83 44 156
46 163 9 23 -23 12 -56 -20 -46 -45 -76 -110 -117 -249 -158 -545 -459 -925
-914 -1154 -38 -19 -72 -35 -76 -35 -3 0 20 20 52 43 124 92 199 196 240 333
14 44 18 90 17 184 -2 242 -65 417 -213 589 -113 133 -163 221 -202 357 -32
113 -32 304 0 385 55 138 157 201 364 224 60 7 76 22 58 55 -14 26 -48 31
-215 31 -285 1 -524 -64 -713 -193 -68 -46 -186 -162 -243 -240 -96 -128 -185
-335 -235 -543 -49 -206 -201 -556 -289 -667 -64 -81 -113 -112 -177 -110
-136 3 -256 126 -332 340 -114 321 -170 865 -122 1201 8 63 14 117 12 119 -3
2 -51 4 -108 3 -277 0 -476 -127 -588 -375 -31 -67 -104 -303 -144 -461 -49
-193 -114 -362 -226 -586 -107 -216 -205 -341 -275 -355 -92 -17 -196 102
-254 289 -50 164 -68 327 -81 725 -12 391 -27 495 -89 627 -38 82 -81 128
-143 155 -45 19 -65 22 -147 18 -84 -3 -104 -8 -164 -37 -117 -59 -218 -175
-298 -346 -89 -189 -237 -631 -284 -850 -25 -115 -31 -118 -39 -18 -19 249
-87 623 -146 803 -68 209 -136 317 -226 361 -67 32 -195 24 -279 -17 -108 -53
-201 -167 -264 -324 -65 -164 -160 -518 -206 -764 -25 -139 -35 -174 -35 -123
0 40 -85 536 -129 752 -21 105 -48 215 -60 245 -30 79 -87 148 -150 184 -49
27 -63 30 -135 29 -144 -1 -244 -57 -303 -170 -42 -79 -121 -318 -183 -551
-68 -262 -201 -614 -271 -724 -64 -100 -147 -147 -234 -134 -168 26 -257 120
-319 338 -78 273 -94 676 -42 1068 8 58 13 107 11 109 -11 10 -188 12 -235 2
-30 -6 -107 -37 -170 -69 -140 -69 -206 -78 -304 -42 l-59 22 8 67 c28 261 23
432 -16 536 -62 165 -199 232 -356 173 -113 -42 -175 -96 -220 -193 -24 -53
-27 -71 -28 -165 0 -125 18 -193 72 -273 21 -30 61 -74 88 -96 60 -49 178
-112 257 -137 52 -16 57 -19 53 -43 -84 -522 -241 -986 -427 -1258 -58 -86
-164 -120 -273 -88 -187 54 -356 420 -415 900 -23 180 -9 592 26 761 l6 32
-68 4 c-108 8 -197 -7 -265 -43 -55 -30 -120 -89 -147 -135 -11 -18 -13 -18
-34 11 -40 55 -104 111 -154 134 -68 32 -140 40 -274 30 -358 -26 -621 -181
-822 -484 -178 -267 -263 -497 -275 -740 -3 -71 -1 -150 6 -193 7 -48 8 -79 1
-91 -13 -26 -117 -108 -192 -154 -70 -42 -211 -90 -315 -108 -183 -31 -451 -4
-641 63 -78 27 -242 103 -242 112 0 2 25 56 55 120 103 215 178 482 204 726
29 266 22 751 -15 1080 -8 74 -16 146 -17 160 -2 24 0 25 88 32 707 58 1253
208 1659 455 301 183 514 412 661 708 190 382 234 756 144 1215 -68 346 -246
662 -480 856 -393 325 -919 446 -1749 403z m115 -399 c815 -69 1261 -417 1372
-1070 23 -135 22 -405 -1 -535 -40 -221 -140 -457 -274 -644 -78 -110 -235
-278 -337 -361 -218 -178 -499 -321 -826 -420 -131 -39 -386 -97 -392 -89 -6
8 -78 459 -97 609 -62 493 -82 927 -52 1150 47 353 133 570 266 670 98 74 233
119 358 120 97 0 136 31 100 80 -18 24 -25 25 -123 28 -357 11 -845 -67 -1154
-185 -690 -262 -1087 -801 -1180 -1602 -43 -363 16 -845 156 -1288 136 -430
438 -1002 680 -1289 38 -45 118 -129 179 -188 l110 -106 -20 -101 c-59 -290
-195 -483 -415 -589 -303 -147 -696 -111 -996 90 -138 93 -304 291 -395 471
-134 268 -252 680 -314 1104 -46 313 -55 461 -55 920 0 464 7 568 56 865 215
1301 953 2060 2229 2294 357 65 814 92 1125 66z m-778 -699 c-225 -179 -389
-463 -456 -792 -80 -393 -81 -1199 -1 -1999 47 -474 65 -899 51 -1233 -5 -126
-12 -231 -14 -233 -12 -12 -246 252 -316 356 -317 469 -536 979 -635 1475 -52
266 -60 351 -61 655 0 305 5 351 55 545 151 577 582 989 1290 1234 80 27 149
50 153 50 5 1 -25 -25 -66 -58z m4613 -2642 c42 -82 53 -161 47 -349 -4 -96
-10 -188 -14 -203 l-8 -28 -62 55 c-114 104 -164 212 -164 361 0 85 21 174 46
195 23 19 77 28 108 17 17 -6 35 -24 47 -48z m-1814 -526 c70 -24 154 -110
183 -188 21 -56 22 -65 11 -135 -19 -120 -86 -377 -141 -537 -63 -184 -137
-338 -227 -474 -114 -170 -199 -233 -313 -232 -185 2 -304 189 -316 498 -6
163 11 270 73 454 123 363 281 556 504 615 74 20 166 20 226 -1z"/>
<path d="M20457 9380 c-530 -48 -987 -191 -1404 -442 -530 -319 -854 -699
-987 -1161 -47 -163 -60 -258 -60 -457 0 -173 2 -191 27 -273 67 -218 207
-410 349 -480 93 -46 152 -59 258 -60 166 0 308 59 415 175 l64 69 5 -33 c3
-18 10 -73 16 -123 28 -233 104 -484 214 -710 123 -251 260 -440 464 -644
l115 -113 -6 -227 c-3 -139 -12 -260 -22 -316 -15 -89 -50 -223 -59 -232 -3
-3 -53 6 -113 20 -326 77 -673 77 -973 2 -124 -31 -278 -86 -338 -121 -132
-78 -212 -198 -220 -333 -4 -75 -4 -78 23 -99 51 -40 320 -111 518 -137 150
-19 375 -19 493 0 163 26 308 89 409 177 l42 37 210 -59 c394 -109 505 -125
888 -125 265 1 315 3 429 23 330 57 574 151 818 314 64 43 119 82 122 86 2 4
67 2 143 -6 201 -19 572 -11 726 17 228 40 478 116 618 187 63 31 70 33 76 17
95 -275 295 -513 530 -632 125 -63 197 -76 403 -75 167 0 195 3 283 27 195 52
372 154 526 302 157 151 252 284 357 499 59 122 80 178 169 471 106 346 312
573 623 685 34 13 65 21 67 18 3 -2 -26 -26 -64 -52 -111 -76 -211 -188 -265
-297 -26 -52 -53 -125 -61 -164 -19 -91 -19 -263 0 -344 21 -87 88 -211 196
-361 168 -234 214 -332 225 -483 16 -206 -52 -356 -191 -419 -80 -36 -316 -38
-408 -3 -13 5 -17 2 -17 -13 0 -28 59 -76 127 -103 160 -62 591 15 889 161
332 162 571 405 752 766 68 135 109 251 182 504 68 238 128 417 143 427 19 11
27 -23 27 -117 0 -252 93 -764 180 -988 87 -225 251 -375 468 -427 168 -41
342 18 492 165 82 80 130 151 205 300 l58 115 21 -97 c39 -172 127 -319 233
-386 73 -46 141 -62 268 -62 353 0 583 182 814 640 32 63 73 158 92 210 l34
95 7 -55 c3 -30 14 -127 23 -215 22 -217 57 -469 110 -785 24 -146 45 -277 47
-292 3 -25 -4 -31 -82 -69 -149 -72 -339 -158 -554 -251 -541 -232 -970 -493
-1240 -756 -153 -149 -267 -337 -321 -525 -72 -254 -49 -555 56 -758 112 -214
316 -345 643 -412 100 -20 140 -22 401 -22 255 0 305 3 410 22 303 55 536 156
729 315 245 203 448 547 540 917 53 209 61 294 61 621 0 171 -6 360 -13 430
-19 186 -50 420 -73 550 l-20 115 22 15 c165 110 370 304 486 460 195 262 309
504 448 955 25 83 54 158 64 168 25 25 47 12 65 -36 41 -112 165 -841 211
-1242 20 -173 27 -192 79 -216 89 -40 236 -17 334 54 100 71 120 118 141 325
24 234 170 688 331 1029 74 156 126 203 203 182 46 -12 80 -56 104 -134 16
-53 18 -91 15 -312 -5 -477 40 -769 153 -993 48 -93 95 -144 172 -182 57 -28
79 -33 157 -36 220 -9 398 87 557 301 112 150 327 611 392 842 62 216 87 318
82 323 -9 9 -58 -32 -87 -74 -15 -21 -41 -84 -58 -139 -68 -221 -184 -506
-265 -651 -44 -78 -126 -169 -176 -195 -49 -24 -131 -25 -184 0 -55 25 -108
87 -134 155 -43 115 -67 345 -76 716 -11 425 -28 552 -94 695 -64 138 -136
180 -293 173 -82 -3 -103 -8 -169 -39 -91 -44 -181 -125 -244 -220 -116 -173
-288 -617 -389 -998 -19 -73 -37 -135 -39 -137 -2 -2 -9 42 -16 98 -38 321
-103 700 -158 913 -50 197 -135 335 -229 371 -99 38 -245 -6 -304 -91 -81
-118 -150 -300 -250 -655 -68 -246 -85 -296 -137 -420 -131 -308 -341 -585
-613 -807 l-115 -94 -7 28 c-14 53 -97 528 -117 668 -44 305 -55 451 -55 770
-1 243 3 338 17 439 10 71 15 131 13 133 -3 3 -53 5 -113 5 -88 0 -119 -4
-167 -22 -64 -24 -147 -93 -173 -143 l-14 -28 -61 66 c-103 113 -187 140 -389
124 -179 -13 -285 -41 -429 -115 -204 -104 -363 -279 -515 -566 -61 -117 -91
-195 -134 -353 -71 -260 -211 -524 -319 -598 -55 -38 -122 -39 -198 -2 -191
94 -311 438 -364 1045 -13 146 -8 325 15 486 7 54 12 100 10 102 -10 11 -228
1 -280 -13 -171 -44 -312 -156 -392 -310 -43 -84 -111 -289 -168 -510 -134
-520 -367 -873 -744 -1126 -90 -61 -248 -149 -267 -149 -3 0 20 19 52 43 112
82 196 194 233 307 36 112 32 318 -9 469 -30 107 -99 232 -186 336 -94 112
-137 183 -174 282 -78 217 -62 439 41 556 62 71 145 105 301 122 60 7 76 22
58 55 -14 26 -48 31 -215 31 -289 1 -507 -58 -703 -188 -214 -142 -366 -367
-452 -668 -81 -286 -128 -401 -232 -572 -58 -97 -160 -210 -252 -280 -211
-159 -475 -190 -691 -80 -107 54 -253 175 -319 266 -55 74 -137 253 -124 267
3 2 51 13 109 25 231 47 457 133 600 229 101 68 208 183 252 270 104 208 84
458 -47 598 -86 92 -203 136 -391 148 -309 20 -605 -77 -802 -260 -92 -86
-150 -167 -207 -287 -82 -173 -110 -333 -105 -598 l4 -184 -60 -33 c-138 -77
-505 -178 -745 -205 -105 -12 -574 -9 -586 4 -4 3 16 31 43 61 331 362 634
877 776 1321 120 372 165 711 154 1140 -17 639 -135 1135 -361 1518 -207 352
-524 627 -981 853 -248 122 -481 195 -765 239 -123 19 -543 28 -693 15z m149
-315 c497 -65 959 -292 1337 -654 118 -113 191 -201 277 -331 246 -375 378
-852 410 -1490 20 -373 -14 -695 -121 -1172 -83 -372 -184 -618 -351 -860 -73
-105 -208 -258 -235 -265 -48 -12 -417 85 -659 173 -267 96 -601 259 -801 389
-2 1 6 64 17 141 42 298 54 494 54 884 0 275 -5 445 -19 635 -26 352 -27 951
-2 1205 20 192 37 291 69 390 87 272 295 440 544 440 53 0 77 4 88 16 23 23
19 51 -9 70 -23 15 -42 15 -194 5 -450 -30 -782 -137 -1119 -362 -462 -307
-710 -728 -763 -1289 -7 -69 -15 -128 -18 -131 -10 -11 -110 19 -177 51 -67
33 -154 117 -198 192 -42 72 -93 224 -107 318 -14 100 -7 291 17 430 18 110
79 300 124 391 209 417 706 744 1252 823 131 19 440 20 584 1z m-248 -714
c-179 -186 -300 -413 -373 -696 -89 -346 -122 -1047 -83 -1750 10 -165 20
-374 23 -465 l6 -165 -92 95 c-276 287 -452 589 -544 933 -57 211 -82 453 -65
630 72 739 446 1233 1115 1468 44 15 82 28 84 29 2 0 -30 -35 -71 -79z m4393
-2712 c54 -27 104 -99 136 -194 24 -71 27 -95 27 -215 0 -114 -4 -144 -22
-194 -69 -188 -226 -306 -495 -376 -162 -41 -164 -41 -174 18 -12 73 -9 406 5
509 21 159 73 274 163 363 110 107 254 143 360 89z m6172 -55 c61 -21 139 -95
170 -162 23 -50 24 -55 11 -111 -8 -33 -21 -120 -28 -193 -31 -283 -152 -598
-342 -885 -106 -160 -183 -216 -295 -216 -131 0 -221 83 -281 262 -32 94 -32
100 -33 276 0 166 2 188 29 289 89 345 254 609 439 702 100 51 243 68 330 38z
m-10361 -905 c237 -136 501 -254 771 -344 161 -54 424 -125 462 -125 17 0 17
-2 5 -14 -24 -23 -149 -82 -221 -104 -114 -35 -220 -45 -394 -39 -236 10 -418
39 -672 111 -65 18 -171 48 -235 66 l-117 33 46 51 c83 92 162 232 204 364 12
39 24 72 26 72 1 0 58 -32 125 -71z m-1577 -615 c175 -28 575 -121 575 -135 0
-12 -99 -71 -163 -97 -33 -13 -104 -33 -157 -44 -187 -39 -566 -8 -825 67 -49
14 -94 30 -99 36 -15 14 28 93 67 123 74 56 189 77 382 70 66 -3 165 -12 220
-20z m12328 -1019 c44 -306 51 -402 51 -650 0 -335 -32 -557 -119 -820 -209
-639 -617 -958 -1137 -890 -402 52 -643 203 -756 472 -74 175 -81 446 -17 668
68 233 201 422 423 601 267 214 614 417 952 557 88 37 427 194 515 239 35 18
52 23 56 15 4 -7 18 -93 32 -192z"/>
<path d="M28383 6920 c-109 -23 -214 -105 -263 -205 -22 -44 -25 -63 -25 -160
0 -95 3 -116 24 -158 37 -75 104 -142 178 -179 61 -30 75 -33 157 -32 77 0
100 4 148 26 160 74 247 238 218 407 -29 166 -166 292 -330 305 -36 3 -84 1
-107 -4z"/>
<path d="M13881 6900 c-105 -22 -198 -93 -252 -192 -33 -61 -34 -67 -34 -173
0 -100 2 -115 27 -161 38 -72 74 -112 140 -154 186 -120 440 -42 535 165 23
51 27 73 27 150 1 77 -3 98 -26 147 -75 161 -251 253 -417 218z"/>
</g>
</svg>
